<svg width="207" height="150" viewBox="0 0 307 242" fill="none" xmlns="http://www.w3.org/2000/svg">
<path d="M266.227 187.172H59.9609V39.7031C59.9609 38.6633 58.8816 37.8125 57.5625 37.8125H40.7734C39.4543 37.8125 38.375 38.6633 38.375 39.7031V202.297C38.375 203.337 39.4543 204.188 40.7734 204.188H266.227C267.546 204.188 268.625 203.337 268.625 202.297V189.062C268.625 188.023 267.546 187.172 266.227 187.172ZM86.3438 168.266H103.133C104.452 168.266 105.531 167.415 105.531 166.375V132.344C105.531 131.304 104.452 130.453 103.133 130.453H86.3438C85.0246 130.453 83.9453 131.304 83.9453 132.344V166.375C83.9453 167.415 85.0246 168.266 86.3438 168.266ZM131.914 168.266H148.703C150.022 168.266 151.102 167.415 151.102 166.375V90.75C151.102 89.7102 150.022 88.8594 148.703 88.8594H131.914C130.595 88.8594 129.516 89.7102 129.516 90.75V166.375C129.516 167.415 130.595 168.266 131.914 168.266ZM177.484 168.266H194.273C195.593 168.266 196.672 167.415 196.672 166.375V109.184C196.672 108.144 195.593 107.293 194.273 107.293H177.484C176.165 107.293 175.086 108.144 175.086 109.184V166.375C175.086 167.415 176.165 168.266 177.484 168.266ZM223.055 168.266H239.844C241.163 168.266 242.242 167.415 242.242 166.375V71.8438C242.242 70.8039 241.163 69.9531 239.844 69.9531H223.055C221.736 69.9531 220.656 70.8039 220.656 71.8438V166.375C220.656 167.415 221.736 168.266 223.055 168.266Z" fill="#F5F5F5"/>
</svg>
