<svg width="200" height="150" viewBox="0 0 256 256" fill="none" xmlns="http://www.w3.org/2000/svg">
<path d="M228.971 31.0293C228.971 29.9684 228.549 28.9511 227.799 28.2009C227.049 27.4508 226.032 27.0293 224.971 27.0293C190.727 27.0293 154.514 60.0684 130.108 87.8652C130.006 87.9701 129.909 88.0806 129.818 88.1963C122.274 96.8091 115.87 104.902 111.023 111.332C102.567 108.277 93.4999 107.303 84.5878 108.492C75.6756 109.682 67.181 113 59.8222 118.166C52.4633 123.332 46.4567 130.194 42.3102 138.172C38.1637 146.15 35.9993 155.009 36 164C36 197.436 18.2559 212.263 17.4893 212.886C16.845 213.405 16.3778 214.112 16.1519 214.908C15.926 215.704 15.9526 216.551 16.228 217.331C16.5034 218.111 17.0141 218.787 17.6896 219.265C18.3652 219.743 19.1724 220 20 220H92C100.991 220.001 109.85 217.836 117.828 213.69C125.806 209.543 132.668 203.537 137.834 196.178C143 188.819 146.318 180.324 147.508 171.412C148.697 162.5 147.723 153.433 144.668 144.977C151.097 140.13 159.188 133.728 167.799 126.185C167.918 126.092 168.032 125.993 168.14 125.887C195.935 101.481 228.971 65.2705 228.971 31.0293ZM92 212H29.1289C35.4521 203.751 44 188.137 44 164C44 154.506 46.8151 145.226 52.0895 137.333C57.3638 129.439 64.8603 123.287 73.6312 119.654C82.402 116.021 92.0532 115.07 101.364 116.922C110.675 118.774 119.228 123.346 125.941 130.059C132.654 136.772 137.226 145.325 139.078 154.636C140.93 163.947 139.979 173.598 136.346 182.369C132.713 191.14 126.561 198.636 118.667 203.911C110.774 209.185 101.494 212 92 212V212ZM118.518 114.69C122.838 109.005 127.985 102.541 133.797 95.7798C144.561 102.385 153.615 111.439 160.22 122.203C153.459 128.014 146.995 133.161 141.31 137.482C136.092 127.829 128.171 119.908 118.518 114.69V114.69ZM166.305 116.856C159.357 105.917 150.083 96.6432 139.144 89.6948C146.296 81.6844 153.877 74.0667 161.853 66.875C183.69 47.3379 203.491 36.7051 220.788 35.2119C219.295 52.5078 208.662 72.3096 189.126 94.1465C181.934 102.122 174.316 109.703 166.305 116.856V116.856Z" fill="#F5F5F5"/>
</svg>
