<svg width="40" height="106" viewBox="0 0 207 206" fill="none" xmlns="http://www.w3.org/2000/svg">
<g clip-path="url(#clip0_33_12)">
<path d="M12.9375 25.75V64.375H0V83.6875H6.46875V122.312H0V141.625H12.9375V180.25H42.4512C58.3451 180.25 73.6578 173.938 84.9023 162.748L113.001 134.986L164.953 130.561C181.605 129.177 196.716 120.452 205.989 106.621L208.213 103L205.989 99.3789C196.716 85.5483 181.605 76.8225 164.953 75.4395L113.001 71.0137L85.9131 44.0566L84.9023 43.252C73.6578 32.0618 58.3451 25.75 42.4512 25.75H12.9375ZM25.875 38.625H42.4512C54.9338 38.625 66.9869 43.5286 75.8057 52.3047L94.2012 70.8125H64.6875V83.6875H109.969L163.74 88.1133C174.656 89.0186 184.132 94.8777 191.232 103C184.132 111.122 174.656 116.981 163.74 117.887L109.362 122.312H64.6875V135.188H94.2012L75.8057 153.695C66.9869 162.471 54.9338 167.375 42.4512 167.375H25.875V122.312H19.4062V83.6875H25.875V38.625ZM155.25 96.5625V109.438H168.188V96.5625H155.25ZM38.8125 135.188V154.5H51.75V135.188H38.8125Z" fill="#F5F5F5"/>
</g>
<defs>
<clipPath id="clip0_33_12">
<rect width="207" height="206" fill="white"/>
</clipPath>
</defs>
</svg>
